<svg
  xmlns="http://www.w3.org/2000/svg"
  viewBox="0 0 220 44"
  fill="none"
  aria-label="dogikarepro"
  role="img"
>
  <title>dogikarepro</title>
  <defs>
    <linearGradient id="brandGradDark" x1="0%" y1="0%" x2="100%" y2="100%">
      <stop offset="0%"   stop-color="#3B6EF4"/>
      <stop offset="100%" stop-color="#14B8A6"/>
    </linearGradient>
    <linearGradient id="iconGradDark" x1="0%" y1="0%" x2="100%" y2="100%">
      <stop offset="0%"   stop-color="#EFF4FF" stop-opacity="0.95"/>
      <stop offset="100%" stop-color="#CCFBF1" stop-opacity="0.7"/>
    </linearGradient>
  </defs>

  <!-- Icon mark -->
  <rect x="0" y="2" width="40" height="40" rx="10" fill="url(#brandGradDark)"/>
  <rect x="10" y="9" width="4" height="26" rx="2" fill="url(#iconGradDark)"/>
  <path
    d="M14 9 Q30 9 30 22 Q30 35 14 35"
    stroke="url(#iconGradDark)"
    stroke-width="4"
    stroke-linecap="round"
    fill="none"
  />
  <circle cx="28" cy="14" r="2.2" fill="#F97316"/>
  <circle cx="30" cy="22" r="2.5" fill="#FFFFFF" fill-opacity="0.9"/>
  <circle cx="28" cy="30" r="2.2" fill="#F97316"/>
  <line x1="28" y1="14" x2="34" y2="14" stroke="#F97316" stroke-width="1.5" stroke-linecap="round" opacity="0.7"/>
  <line x1="30" y1="22" x2="37" y2="22" stroke="#FFFFFF" stroke-width="1.5" stroke-linecap="round" opacity="0.5"/>
  <line x1="28" y1="30" x2="34" y2="30" stroke="#F97316" stroke-width="1.5" stroke-linecap="round" opacity="0.7"/>
  <path
    d="M10 22 L14 22 L16 18 L18 26 L20 20 L22 24 L24 22 L30 22"
    stroke="#FFFFFF"
    stroke-width="1.5"
    stroke-linecap="round"
    stroke-linejoin="round"
    fill="none"
    opacity="0.55"
  />

  <!-- Wordmark – white for dark backgrounds -->
  <text
    x="50"
    y="30"
    font-family="'Inter', 'Satoshi', system-ui, sans-serif"
    font-weight="700"
    font-size="20"
    letter-spacing="-0.5"
    fill="#F8FAFC"
  >dogikare</text>

  <text
    x="152"
    y="30"
    font-family="'Inter', 'Satoshi', system-ui, sans-serif"
    font-weight="700"
    font-size="20"
    letter-spacing="-0.5"
    fill="#14B8A6"
  >pro</text>

  <text
    x="50"
    y="40"
    font-family="'Inter', system-ui, sans-serif"
    font-weight="400"
    font-size="7"
    letter-spacing="1.5"
    fill="#94A3B8"
    text-anchor="start"
  >SMART CARE · SMART SHOPPING</text>
</svg>
